<svg width="734" height="640" viewBox="0 0 734 640" fill="none" xmlns="http://www.w3.org/2000/svg" xmlns:xlink="http://www.w3.org/1999/xlink">
<rect width="734" height="640" fill="url(#pattern0)"/>
<path d="M223 530.92L445.323 539.229L515 525V547.539L446.028 568L223 556.575V530.92Z" fill="#3595F6" fill-opacity="0.75"/>
<path d="M223 531.03V503L444.819 506.7L515 503V525.424L445.222 540L223 531.03Z" fill="#3595F6" fill-opacity="0.75"/>
<path d="M223 504V479H445.524H515V502L446.531 509L223 504Z" fill="#3595F6" fill-opacity="0.75"/>
<path d="M223 479V454.61L446.597 451L515 457.537V479H446.294" fill="#3595F6" fill-opacity="0.75"/>
<path d="M223 454.028V428.269L446.028 425L515 435.898V457L445.524 450.362L223 454.028Z" fill="#3595F6" fill-opacity="0.75"/>
<path d="M223 429.194V404.05L444 391L515 415.402V438L444 424.95L223 429.194Z" fill="#3595F6" fill-opacity="0.75"/>
<path d="M223 406.724V380.862L445.2 364L515 393.586V415L444.7 392.552L223 406.724Z" fill="#3595F6" fill-opacity="0.75"/>
<path d="M223 382.435V356.257L445.5 335L515 373.325V395L443 364.948L223 382.435Z" fill="#3595F6" fill-opacity="0.75"/>
<path d="M223 358.629V332.693L446 306L515 353.549V377L445.7 335.935L223 358.629Z" fill="#3595F6" fill-opacity="0.75"/>
<path d="M223 332.596V306.821L445.5 276L515 330.77V353L444.7 307.573L223 332.596Z" fill="#3595F6" fill-opacity="0.75"/>
<path d="M223 310.772V284.342L444.541 248L515 313.305V335L445.239 279.166L223 310.772Z" fill="#3595F6" fill-opacity="0.75"/>
<path d="M223 284.165V258.471L444.96 221L515 289.518V312L446.064 249.585L223 284.165Z" fill="#3595F6" fill-opacity="0.75"/>
<path d="M223 258.769V232.67L446.064 193L515 266.39V288L445.763 221.187L223 258.769Z" fill="#3595F6" fill-opacity="0.75"/>
<path d="M223 233.28V206.977L444.559 161L515 244.117V268L445.763 190.88L223 233.28Z" fill="#3595F6" fill-opacity="0.75"/>
<path d="M222 206V181L444.276 133L515 218V241L443.569 161.7L222 206Z" fill="#3595F6" fill-opacity="0.75"/>
<path d="M222 180.67V155.452L443.311 103L515 196.103V219L444.821 131.95L222 180.67Z" fill="#3595F6" fill-opacity="0.75"/>
<path d="M223 157.25V130.763L445.763 73L515 176.606V198L445.462 104.581L223 157.25Z" fill="#3595F6" fill-opacity="0.75"/>
<defs>
<pattern id="pattern0" patternContentUnits="objectBoundingBox" width="1" height="1">
<use xlink:href="#image0" transform="translate(-0.00408719) scale(0.0013624 0.0015625)"/>
</pattern>
<image id="image0" width="740" height="640" xlink:href="home.png"/>
</defs>
</svg>
